TITLE:

Sinister 2012 TS XViD v2 - INSPiRAL

IMDB:
 
http://www.imdb.com/title/tt1922777/



SOURCES:

VIDEO -  MATiNE 720p THANKS
AUDIO -  Jiinx  THANKS
SUBS  - None Add

STATS:

Video
ID                               : 0
Format                           : MPEG-4 Visual
Format profile                   : Advanced Simple@L5
Format settings, BVOP            : 2
Format settings, QPel            : No
Format settings, GMC             : No warppoints
Format settings, Matrix          : Default (MPEG)
Muxing mode                      : Packed bitstream
Codec ID                         : XVID
Codec ID/Hint                    : XviD
Duration                         : 1h 43mn
Bit rate                         : 1 714 Kbps
Width                            : 720 pixels
Height                           : 304 pixels
Display aspect ratio             : 2.35:1
Frame rate                       : 24.000 fps
Color space                      : YUV
Chroma subsampling               : 4:2:0
Bit depth                        : 8 bits
Scan type                        : Progressive
Compression mode                 : Lossy
Bits/(Pixel*Frame)               : 0.326
Stream size                      : 1.24 GiB (93%)
Writing library                  : XviD 64

Audio
ID                               : 1
Format                           : MPEG Audio
Format version                   : Version 1
Format profile                   : Layer 3
Mode                             : Joint stereo
Mode extension                   : MS Stereo
Codec ID                         : 55
Codec ID/Hint                    : MP3
Duration                         : 1h 43mn
Bit rate mode                    : Constant
Bit rate                         : 128 Kbps
Channel(s)                       : 2 channels
Sampling rate                    : 44.1 KHz
Compression mode                 : Lossy
Stream size                      : 94.6 MiB (7%)
Alignment                        : Split accross interleaves
Interleave, duration             : 42 ms (1.00 video frame)
Interleave, preload duration     : 500 ms



NOTES:

Video ....this time round is matines,got faults like any cam release would have.Dark scenes are dark,contrast/brightness levels
off,colouring a little too powerful ( IMHO ),but overall a decent cam.
Audio is jiinx line....very nice audio,little hiss here and there but otherwise top stuff ( again ).


WORKDONE:

Totally honest can't remember everything i did with this video has i had it batched up days ago,but due to work been unable to
get it released :(.Anyway its been tweaked that i can say lol ...

Audio was jiinx sweet line ...just dropped in AA,changed the EQ bands settings and lowered the DB's a touch and resaved.


Enjoy folks :)


SCREENS:
 
http://i.imgrz.com/yUHGw.png 
http://i.imgrz.com/I2QYh.png 
http://i.imgrz.com/pzvjL.png 
http://i.imgrz.com/5mA0Q.png 
http://i.imgrz.com/1tsdI.png 
http://i.imgrz.com/oinAB.png 
http://i.imgrz.com/z5UXK.png